<svg xmlns="http://www.w3.org/2000/svg" viewBox="0 0 600 800">
  <!-- Sarah seated, back view: wavy blonde hair over her back, sunglasses perched on the crown, teal tee -->
  <g transform="translate(36 90.24) scale(0.88)">
    <g stroke="#3b2a21" stroke-width="9" stroke-linejoin="round" stroke-linecap="round">
      <!-- relaxed arms, hands on the sand -->
      <path d="M 388 528 Q 416 540 428 574 Q 438 616 440 664 Q 441 686 429 690 Q 417 692 412 677 Q 404 644 401 600 Q 398 554 386 534 Z" fill="#f1be96"/>
      <ellipse cx="432" cy="702" rx="21" ry="24" fill="#f1be96"/>
      <path d="M 212 528 Q 184 540 172 574 Q 162 616 160 664 Q 159 686 171 690 Q 183 692 188 677 Q 196 644 199 600 Q 202 554 214 534 Z" fill="#f1be96"/>
      <ellipse cx="168" cy="702" rx="21" ry="24" fill="#f1be96"/>
      <!-- rounded tee back -->
      <path d="M 300 466 Q 254 468 228 486 Q 198 504 192 544 L 186 690 Q 184 726 222 728 L 378 728 Q 416 726 414 690 L 408 544 Q 402 504 372 486 Q 346 468 300 466 Z" fill="#58b8c8"/>
      <!-- head from behind (fully covered by hair) -->
      <ellipse cx="300" cy="330" rx="150" ry="145" fill="#f1be96"/>
    </g>
    <!-- wavy blonde hair seen from behind, falling over the shoulders -->
    <path d="M 300 174
             Q 400 178 442 228
             Q 470 268 464 316
             Q 482 356 468 396
             Q 454 428 470 466
             Q 482 498 464 528
             Q 450 546 430 538
             Q 370 550 300 550
             Q 230 550 170 538
             Q 150 546 136 528
             Q 118 498 130 466
             Q 146 428 132 396
             Q 118 356 136 316
             Q 130 268 158 228
             Q 200 178 300 174 Z" fill="#e8c46a" stroke="#3b2a21" stroke-width="9" stroke-linejoin="round"/>
    <path d="M 450 258 Q 468 308 454 358 Q 442 400 458 442 M 150 258 Q 132 308 146 358 Q 158 400 142 442" fill="none" stroke="#c9a24b" stroke-width="6" stroke-linecap="round"/>
    <path d="M 464 398 Q 452 448 466 490 Q 472 516 456 530 M 136 398 Q 148 448 134 490 Q 128 516 144 530" fill="none" stroke="#c9a24b" stroke-width="6" stroke-linecap="round"/>
    <path d="M 442 238 Q 456 283 446 328 Q 438 366 450 398 M 158 238 Q 144 283 154 328 Q 162 366 150 398" fill="none" stroke="#f4d98c" stroke-width="5" stroke-linecap="round" opacity="0.85"/>
    <path d="M 250 258 Q 240 340 252 410 Q 258 452 250 492 M 350 258 Q 360 340 348 410 Q 342 452 350 492" fill="none" stroke="#c9a24b" stroke-width="5" stroke-linecap="round"/>
    <!-- sunglasses perched on her hair, temples wrapping the crown from behind -->
    <path d="M 222 216 Q 300 190 378 216" fill="none" stroke="#2d2622" stroke-width="10" stroke-linecap="round"/>
    <path d="M 222 216 q -6 10 -2 20 M 378 216 q 6 10 2 20" fill="none" stroke="#2d2622" stroke-width="7" stroke-linecap="round"/>
  </g>
</svg>
